<svg width="67" height="12" viewBox="0 0 67 12" fill="none" xmlns="http://www.w3.org/2000/svg">
<path fill-rule="evenodd" clip-rule="evenodd" d="M46.0894 0.25H60.9106C62.1587 0.25 62.6113 0.379956 63.0676 0.623986C63.5239 0.868016 63.882 1.22612 64.126 1.68242C64.37 2.13871 64.5 2.59131 64.5 3.83944V8.16056C64.5 9.40869 64.37 9.86129 64.126 10.3176C63.882 10.7739 63.5239 11.132 63.0676 11.376C62.6113 11.62 62.1587 11.75 60.9106 11.75H46.0894C44.8413 11.75 44.3887 11.62 43.9324 11.376C43.4761 11.132 43.118 10.7739 42.874 10.3176C42.63 9.86129 42.5 9.40869 42.5 8.16056V3.83944C42.5 2.59131 42.63 2.13871 42.874 1.68242C43.118 1.22612 43.4761 0.868016 43.9324 0.623986C44.3887 0.379956 44.8413 0.25 46.0894 0.25ZM46.0894 1.25C45.1025 1.25 44.7579 1.31654 44.404 1.5058C44.122 1.65663 43.9066 1.87199 43.7558 2.15401C43.5665 2.5079 43.5 2.85246 43.5 3.83944V8.16056C43.5 9.14754 43.5665 9.4921 43.7558 9.84599C43.9066 10.128 44.122 10.3434 44.404 10.4942C44.7579 10.6835 45.1025 10.75 46.0894 10.75H60.9106C61.8975 10.75 62.2421 10.6835 62.596 10.4942C62.878 10.3434 63.0934 10.128 63.2442 9.84599C63.4335 9.4921 63.5 9.14754 63.5 8.16056V3.83944C63.5 2.85246 63.4335 2.5079 63.2442 2.15401C63.0934 1.87199 62.878 1.65663 62.596 1.5058C62.2421 1.31654 61.8975 1.25 60.9106 1.25H46.0894ZM67 5.94C67 7.17657 65.5 7.94 65.5 7.94V3.94C65.5 3.94 67 4.70343 67 5.94Z" fill="#242424" fill-opacity="0.36"/>
<rect x="44.5" y="2.16699" width="18" height="7.66667" rx="1.6" fill="#242424"/>
<path fill-rule="evenodd" clip-rule="evenodd" d="M14.123 1.65632C14.1 1.77224 14.1 1.91164 14.1 2.19043V9.89043C14.1 10.1692 14.1 10.3086 14.123 10.4245C14.2177 10.9006 14.5899 11.2727 15.0659 11.3674C15.1818 11.3904 15.3212 11.3904 15.6 11.3904C15.8788 11.3904 16.0182 11.3904 16.1341 11.3674C16.6101 11.2727 16.9822 10.9006 17.0769 10.4245C17.1 10.3086 17.1 10.1692 17.1 9.89043V2.19043C17.1 1.91164 17.1 1.77224 17.0769 1.65632C16.9822 1.18029 16.6101 0.808175 16.1341 0.713487C16.0182 0.69043 15.8788 0.69043 15.6 0.69043C15.3212 0.69043 15.1818 0.69043 15.0659 0.713487C14.5899 0.808175 14.2177 1.18029 14.123 1.65632ZM9.39999 4.59043C9.39999 4.31164 9.39999 4.17224 9.42305 4.05632C9.51774 3.58029 9.88986 3.20818 10.3659 3.11349C10.4818 3.09043 10.6212 3.09043 10.9 3.09043C11.1788 3.09043 11.3182 3.09043 11.4341 3.11349C11.9101 3.20818 12.2822 3.58029 12.3769 4.05632C12.4 4.17224 12.4 4.31164 12.4 4.59043V9.89043C12.4 10.1692 12.4 10.3086 12.3769 10.4245C12.2822 10.9006 11.9101 11.2727 11.4341 11.3674C11.3182 11.3904 11.1788 11.3904 10.9 11.3904C10.6212 11.3904 10.4818 11.3904 10.3659 11.3674C9.88986 11.2727 9.51774 10.9006 9.42305 10.4245C9.39999 10.3086 9.39999 10.1692 9.39999 9.89043V4.59043ZM4.82305 6.35633C4.79999 6.47224 4.79999 6.61164 4.79999 6.89043V9.89043C4.79999 10.1692 4.79999 10.3086 4.82305 10.4245C4.91773 10.9006 5.28985 11.2727 5.76588 11.3674C5.8818 11.3904 6.02119 11.3904 6.29999 11.3904C6.57878 11.3904 6.71818 11.3904 6.8341 11.3674C7.31012 11.2727 7.68224 10.9006 7.77693 10.4245C7.79999 10.3086 7.79999 10.1692 7.79999 9.89043V6.89043C7.79999 6.61164 7.79999 6.47224 7.77693 6.35633C7.68224 5.8803 7.31012 5.50818 6.8341 5.41349C6.71818 5.39043 6.57878 5.39043 6.29999 5.39043C6.02119 5.39043 5.8818 5.39043 5.76588 5.41349C5.28985 5.50818 4.91773 5.8803 4.82305 6.35633ZM0.0230577 8.35633C0 8.47224 0 8.61164 0 8.89043V9.89043C0 10.1692 0 10.3086 0.0230577 10.4245C0.117746 10.9006 0.489863 11.2727 0.965892 11.3674C1.08181 11.3904 1.22121 11.3904 1.5 11.3904C1.77879 11.3904 1.91819 11.3904 2.03411 11.3674C2.51014 11.2727 2.88225 10.9006 2.97694 10.4245C3 10.3086 3 10.1692 3 9.89043V8.89043C3 8.61164 3 8.47224 2.97694 8.35633C2.88225 7.8803 2.51014 7.50818 2.03411 7.41349C1.91819 7.39043 1.77879 7.39043 1.5 7.39043C1.22121 7.39043 1.08181 7.39043 0.965892 7.41349C0.489863 7.50818 0.117746 7.8803 0.0230577 8.35633Z" fill="#242424"/>
<path fill-rule="evenodd" clip-rule="evenodd" d="M29.8 2.78659C32.0344 2.78669 34.1834 3.64525 35.8028 5.1848C35.9247 5.30366 36.1196 5.30216 36.2397 5.18144L37.4054 4.00503C37.4662 3.9438 37.5001 3.86086 37.4996 3.77456C37.4991 3.68827 37.4642 3.60573 37.4027 3.54522C33.1524 -0.528093 26.447 -0.528093 22.1967 3.54522C22.1351 3.60568 22.1002 3.6882 22.0996 3.77449C22.099 3.86079 22.1329 3.94375 22.1937 4.00503L23.3597 5.18144C23.4797 5.30235 23.6747 5.30385 23.7966 5.1848C25.4162 3.64514 27.5654 2.78659 29.8 2.78659ZM29.8 6.61398C31.0277 6.61391 32.2115 7.07022 33.1216 7.89426C33.2446 8.01121 33.4385 8.00867 33.5585 7.88854L34.7228 6.71213C34.7841 6.65042 34.8182 6.56671 34.8173 6.47973C34.8164 6.39274 34.7807 6.30974 34.7181 6.24929C31.947 3.67155 27.6555 3.67155 24.8843 6.24929C24.8217 6.30974 24.786 6.39278 24.7852 6.47979C24.7843 6.56681 24.8185 6.65051 24.8799 6.71213L26.0439 7.88854C26.1639 8.00867 26.3578 8.01121 26.4809 7.89426C27.3903 7.07076 28.5732 6.61449 29.8 6.61398ZM32.0376 9.42158C32.0998 9.36047 32.1341 9.27637 32.1324 9.18914C32.1306 9.10191 32.0929 9.01928 32.0282 8.96076C30.7419 7.87286 28.8581 7.87286 27.5719 8.96076C27.5071 9.01924 27.4694 9.10184 27.4675 9.18907C27.4657 9.2763 27.4999 9.36042 27.5621 9.42158L29.5765 11.4541C29.6356 11.5138 29.716 11.5474 29.8 11.5474C29.884 11.5474 29.9645 11.5138 30.0235 11.4541L32.0376 9.42158Z" fill="#242424"/>
</svg>
