<svg width="13" height="13" viewBox="0 0 13 13" fill="none" xmlns="http://www.w3.org/2000/svg">
<path d="M9.39722 7.99331H8.83964L8.64202 7.80274C9.3337 6.99813 9.75012 5.95354 9.75012 4.8172C9.75012 2.28337 7.69624 0.229492 5.16242 0.229492C2.62859 0.229492 0.574707 2.28337 0.574707 4.8172C0.574707 7.35103 2.62859 9.40491 5.16242 9.40491C6.29876 9.40491 7.34334 8.98849 8.14796 8.2968L8.33852 8.49443V9.05201L11.8675 12.574L12.9192 11.5223L9.39722 7.99331V7.99331ZM5.16242 7.99331C3.40497 7.99331 1.98631 6.57465 1.98631 4.8172C1.98631 3.05976 3.40497 1.64109 5.16242 1.64109C6.91986 1.64109 8.33852 3.05976 8.33852 4.8172C8.33852 6.57465 6.91986 7.99331 5.16242 7.99331Z" fill="#242424"/>
</svg>
